<svg width="42" height="41" viewBox="0 0 42 41" fill="none" xmlns="http://www.w3.org/2000/svg">
<path d="M19.9001 26.431C18.9112 27.155 17.5001 26.4663 17.5001 25.2596V15.7418C17.5001 14.5351 18.9112 13.8464 19.9001 14.5703L26.4001 19.3293C27.2001 19.915 27.2001 21.0864 26.4001 21.6721L19.9001 26.431Z" fill="#5F75AA"/>
<path fill-rule="evenodd" clip-rule="evenodd" d="M21 6.34581C12.9969 6.34581 6.5 12.688 6.5 20.5006C6.5 28.3132 12.9969 34.6553 21 34.6553C29.0032 34.6553 35.5 28.3132 35.5 20.5006C35.5 12.688 29.0032 6.34581 21 6.34581ZM3.5 20.5006C3.5 11.0706 11.34 3.41724 21 3.41724C30.66 3.41724 38.5 11.0706 38.5 20.5006C38.5 29.9306 30.66 37.5839 21 37.5839C11.34 37.5839 3.5 29.9306 3.5 20.5006Z" fill="#5F75AA"/>
</svg>
